<svg width="512" height="512" viewBox="0 0 512 512" xmlns="http://www.w3.org/2000/svg">
  <!-- Fond principal -->
  <rect width="512" height="512" rx="110" fill="#0A0F1E"/>

  <!-- Fond intérieur -->
  <rect x="32" y="32" width="448" height="448" rx="90" fill="#111827"/>

  <!-- Cercle accent -->
  <circle cx="256" cy="220" r="130" fill="none" stroke="#00C9A7" stroke-width="3" opacity="0.15"/>
  <circle cx="256" cy="220" r="100" fill="none" stroke="#00C9A7" stroke-width="2" opacity="0.1"/>

  <!-- Double helix stylisée -->
  <!-- Brin gauche -->
  <path d="M 180 100 C 160 130 200 160 180 190 C 160 220 200 250 180 280 C 160 310 200 340 180 370"
        fill="none" stroke="#00C9A7" stroke-width="8" stroke-linecap="round"/>
  <!-- Brin droit -->
  <path d="M 332 100 C 352 130 312 160 332 190 C 352 220 312 250 332 280 C 352 310 312 340 332 370"
        fill="none" stroke="#6366F1" stroke-width="8" stroke-linecap="round"/>

  <!-- Barreaux de connexion -->
  <line x1="190" y1="130" x2="322" y2="148" stroke="#00C9A7" stroke-width="4" stroke-linecap="round" opacity="0.8"/>
  <line x1="185" y1="175" x2="325" y2="165" stroke="#6366F1" stroke-width="4" stroke-linecap="round" opacity="0.8"/>
  <line x1="190" y1="218" x2="322" y2="222" stroke="#00C9A7" stroke-width="4" stroke-linecap="round" opacity="0.8"/>
  <line x1="185" y1="258" x2="325" y2="262" stroke="#6366F1" stroke-width="4" stroke-linecap="round" opacity="0.8"/>
  <line x1="190" y1="300" x2="322" y2="298" stroke="#00C9A7" stroke-width="4" stroke-linecap="round" opacity="0.8"/>
  <line x1="185" y1="345" x2="325" y2="348" stroke="#6366F1" stroke-width="4" stroke-linecap="round" opacity="0.8"/>

  <!-- Points sur les nœuds -->
  <circle cx="180" cy="100" r="7" fill="#00C9A7"/>
  <circle cx="332" cy="100" r="7" fill="#6366F1"/>
  <circle cx="180" cy="190" r="7" fill="#00C9A7"/>
  <circle cx="332" cy="190" r="7" fill="#6366F1"/>
  <circle cx="180" cy="280" r="7" fill="#00C9A7"/>
  <circle cx="332" cy="280" r="7" fill="#6366F1"/>
  <circle cx="180" cy="370" r="7" fill="#00C9A7"/>
  <circle cx="332" cy="370" r="7" fill="#6366F1"/>

  <!-- Texte PT -->
  <text x="256" y="460"
        font-size="52"
        text-anchor="middle"
        fill="#00C9A7"
        font-family="'Arial', sans-serif"
        font-weight="900"
        letter-spacing="4">PEPTIDE</text>
  <text x="256" y="500"
        font-size="32"
        text-anchor="middle"
        fill="#6B7A99"
        font-family="'Arial', sans-serif"
        font-weight="700"
        letter-spacing="8">TRACK</text>
</svg>
