<svg xmlns="http://www.w3.org/2000/svg" viewBox="0 0 292 56" role="img" aria-labelledby="title">
  <title id="title">PeptideScanner</title>
  <g transform="translate(4 4)">
    <g fill="none" stroke="#166B5A" stroke-width="3" stroke-linecap="round" stroke-linejoin="round">
      <path d="M16 7H12a5 5 0 0 0-5 5v4"/><path d="M32 7h4a5 5 0 0 1 5 5v4"/>
      <path d="M41 32v4a5 5 0 0 1-5 5h-4"/><path d="M16 41h-4a5 5 0 0 1-5-5v-4"/>
    </g>
    <path d="M17 16L30 24L17 32" fill="none" stroke="#355C9A" stroke-width="3" stroke-linecap="round" stroke-linejoin="round"/>
    <circle cx="17" cy="16" r="3.25" fill="#166B5A"/><circle cx="30" cy="24" r="3.25" fill="#355C9A"/><circle cx="17" cy="32" r="3.25" fill="#166B5A"/>
  </g>
  <text x="66" y="36" font-family="Space Grotesk, system-ui, sans-serif" font-size="27" font-weight="650" letter-spacing="-0.7" fill="#222521">Peptide<tspan fill="#166B5A" font-weight="700">Scanner</tspan></text>
</svg>
